<?xml version="1.0" encoding="utf-8"?>
<!-- Generator: Adobe Illustrator 25.4.0, SVG Export Plug-In . SVG Version: 6.00 Build 0)  -->
<svg version="1.1" id="Capa_1" xmlns="http://www.w3.org/2000/svg" xmlns:xlink="http://www.w3.org/1999/xlink" x="0px" y="0px"
	 viewBox="0 0 472.7 171.4" style="enable-background:new 0 0 472.7 171.4;" xml:space="preserve">
<style type="text/css">
	.st0{fill:#5399DB;}
	.st1{fill:#C6004C;}
	.st2{fill:#54A3B3;}
	.st3{fill:#F6C500;}
	.st4{fill:#55565A;}
</style>
<g>
	<g>
		<path class="st0" d="M124.1,84.4L120,61.2c-0.5-2.9-2.1-4.7-4.9-5.5H115c0,0-0.1,0-0.1-0.1L102.5,51l6.4,36.2L124.1,84.4z"/>
		<path class="st1" d="M76.4,123.6l12.9,4.6c2.7,1,5.1,0.5,7.2-1.4l27.4-23.1c2.2-1.8,3-4.2,2.3-7l-0.9-4.6l-15.2,2.9L89.9,112h-0.1
			l-16.6-5.9L76.4,123.6z"/>
		<path class="st2" d="M64.8,103.1l-3.3-18.6l-15.1,2.7c1.8,10.5,4.3,23.9,4.3,24.1c0.6,2.3,2.2,3.9,4.8,4.8l12.6,4.6L64.8,103.1z"
			/>
		<path class="st3" d="M60.2,76.7l20.3-17.2l16.7,6L94,48l-12.8-4.7c-2.6-0.9-5-0.4-7.2,1.4l-27.4,23c-1.6,1.3-2.5,3.1-2.5,5.2
			c-0.1,0.7,0,1.3,0.1,2.1c0,0,0.4,1.8,0.9,4.7L60.2,76.7z"/>
	</g>
	<g>
		<path class="st4" d="M150.7,63.3h21.5c1.4,0,2.9,0.6,4.3,1.8l2.1,1.8c1.4,1.2,2.1,2.7,2.1,4.5V100c0,1.8-0.7,3.3-2.1,4.5l-2.1,1.8
			c-1.4,1.2-2.9,1.8-4.3,1.8h-21.5c-1.4,0-2.9-0.6-4.3-1.8l-2.1-1.8c-1.4-1.2-2.1-2.7-2.1-4.5V71.3c0-1.8,0.7-3.3,2.1-4.5l2.1-1.8
			C147.9,63.8,149.3,63.3,150.7,63.3z M173.3,98.2V73.3c0-0.8-0.1-1.5-0.1-1.8c-0.1-0.3-0.4-0.6-0.9-1c-0.6-0.4-0.9-0.7-1.3-0.7
			c-0.3-0.1-1-0.1-2.1-0.1h-14.9c-1.1,0-1.8,0.1-2.1,0.1c-0.3,0.1-0.7,0.4-1.3,0.7c-0.6,0.4-0.8,0.7-0.9,1s-0.1,0.8-0.1,1.8v25
			c0,0.8,0.1,1.5,0.1,1.8c0.1,0.3,0.4,0.6,0.9,1c0.6,0.4,0.9,0.7,1.3,0.7c0.3,0.1,1,0.1,2.1,0.1h14.9c1.1,0,1.8-0.1,2.1-0.1
			c0.3-0.1,0.7-0.4,1.3-0.7c0.6-0.4,0.8-0.7,0.9-1C173.3,99.7,173.3,99.1,173.3,98.2z"/>
		<path class="st4" d="M214.5,82.2c1.4,0,2.9,0.6,4.3,1.8l2.1,1.8c1.4,1.2,2.1,2.7,2.1,4.5v9.8c0,1.8-0.7,3.3-2.1,4.5l-2.1,1.8
			c-1.4,1.2-2.9,1.8-4.3,1.8h-19.9c-1.4,0-2.9-0.6-4.3-1.8l-2.1-1.8c-1.4-1.2-2.1-2.7-2.1-4.5v-3.5h7.6v1.6c0,0.8,0.1,1.5,0.1,1.8
			c0.1,0.3,0.4,0.6,0.9,1c0.6,0.4,0.9,0.7,1.3,0.7c0.3,0.1,1,0.1,2.1,0.1h13.3c1.1,0,1.8-0.1,2.1-0.1c0.3-0.1,0.7-0.4,1.3-0.7
			c0.6-0.4,0.8-0.7,0.9-1s0.1-0.8,0.1-1.8V91c-0.1-0.5-0.4-1-1.1-1.6c-0.6-0.4-0.9-0.7-1.3-0.7c-0.3-0.1-1-0.1-2.1-0.1h-15.7
			c-1.4,0-2.9-0.6-4.3-1.8L189,85c-1.4-1.2-2.1-2.7-2.1-4.5v-9.2c0-1.8,0.7-3.3,2.1-4.5l2.1-1.8c1.4-1.2,2.9-1.8,4.3-1.8h19
			c1.4,0,2.9,0.6,4.3,1.8l2.1,1.8c1.4,1.2,2.1,2.7,2.1,4.5v3.6h-7.6v-1.7c0-0.8-0.1-1.5-0.1-1.8c-0.1-0.3-0.4-0.6-0.9-1
			c-0.6-0.4-0.9-0.7-1.3-0.7c-0.3-0.1-1-0.1-2.1-0.1h-12.4c-1.1,0-1.8,0.1-2.1,0.1c-0.3,0.1-0.7,0.4-1.3,0.7c-0.6,0.4-0.8,0.7-0.9,1
			c-0.1,0.3-0.1,0.8-0.1,1.8v5.1c0,0.8,0.1,1.5,0.1,1.8c0.1,0.3,0.4,0.6,0.9,1c0.6,0.4,0.9,0.7,1.3,0.7c0.3,0.1,1,0.1,2.1,0.1
			L214.5,82.2z"/>
		<path class="st4" d="M235.9,73.3c0-0.8,0-1.5,0.1-1.8s0.4-0.6,0.8-1c0.6-0.4,1-0.7,1.3-0.7c0.4-0.1,1-0.1,2.1-0.1h14.9
			c1.1,0,1.8,0.1,2.1,0.1c0.4,0.1,0.7,0.4,1.3,0.8c0.6,0.4,0.8,0.7,0.9,1c0.1,0.3,0.1,0.8,0.1,1.8v11.5c0,0.8-0.1,1.5-0.1,1.8
			c-0.1,0.3-0.4,0.6-0.9,1c-0.6,0.4-1,0.7-1.3,0.7c-0.4,0.1-1,0.1-2.1,0.1h-14.8c-1.1,0-1.8-0.1-2.1-0.1c-0.4-0.1-0.7-0.4-1.3-0.7
			c-0.6-0.4-0.8-0.8-0.8-1.1c-0.1-0.1-0.2-0.7-0.2-1.7L235.9,73.3L235.9,73.3z M236,98.3v-5.9c0,0.6,0.4,1.2,1.1,1.8
			c0.5,0.4,0.8,0.7,1.1,0.7c0.4,0.1,1,0.1,2.1,0.1h18.1c1.4,0,2.9-0.6,4.3-1.8l2.1-1.8c1.4-1.2,2.1-2.7,2.1-4.5V71.5
			c0-1.8-0.7-3.3-2.1-4.5l-2.1-1.8c-1.4-1.2-2.9-2-4.3-2c-5.1,0-11,0-14.1,0H237c-1.4,0-2.9,0.6-4.3,1.8l-2.1,1.8
			c-1.4,1.2-2.1,2.6-2.1,4.4v37.1h7.6V98.3z"/>
		<path class="st4" d="M293.6,63.4c1.4,0,2.9,0.6,4.3,1.8l2.1,1.8l-5.4,4.5l-1.1-0.9c-0.5-0.4-0.8-0.7-1.3-0.7
			c-0.3-0.1-1-0.2-2.1-0.2h-3.8c-1.1,0-1.8,0.1-2.2,0.2c-0.4,0.1-1.1,0.6-2.2,1.1c-1.1,0.7-1.7,1.1-1.9,1.4
			c-0.2,0.3-0.3,0.8-0.3,1.8v34h-7.6V71.4c0-1.8,1.4-3.9,4.3-6.3c1.4-1.2,2.9-1.8,4.3-1.8H293.6z"/>
		<path class="st4" d="M339,100l5.4,4.5l-2.1,1.8c-1.1,0.8-1.8,1.4-2.2,1.6c-0.4,0.1-1.1,0.2-2.2,0.2h-23.9c-1.4,0-2.9-0.6-4.3-1.8
			l-2.1-1.8c-1.4-1.2-2.1-2.7-2.1-4.5V71.3c0-1.8,0.7-3.3,2.1-4.5l2.1-1.8c1.4-1.2,2.9-1.8,4.3-1.8h20.8c1.2,0,2.6,0.6,4.3,1.8
			l2.2,1.8c1.4,1.1,2.1,2.5,2.1,4.5v18.4h-30.6v8.4c0,0.8,0.1,1.5,0.1,1.8c0.1,0.3,0.4,0.6,0.9,1c0.6,0.4,0.9,0.7,1.3,0.7
			c0.3,0.1,1,0.1,2.1,0.1h17.4c1.1,0,1.8-0.1,2.2-0.2C337.2,101.4,337.9,101,339,100z M336,83.8V73.3c0-0.8-0.1-1.5-0.1-1.8
			c-0.1-0.3-0.4-0.6-0.9-1c-0.6-0.4-0.9-0.7-1.3-0.7c-0.3-0.1-1-0.1-2.1-0.1h-14.3c-1.1,0-1.8,0.1-2.1,0.1c-0.3,0.1-0.7,0.4-1.3,0.7
			c-0.6,0.4-0.8,0.7-0.9,1c-0.1,0.3-0.1,0.8-0.1,1.8v10.7L336,83.8L336,83.8z"/>
		<path class="st4" d="M370.6,108.3c-3.1,0-7.2,0-12.4,0c-1.4,0-2.9-0.7-4.3-2l-2.1-1.8c-1.4-1.2-2.1-2.7-2.1-4.5V89.2
			c0-1.8,0.7-3.3,2.1-4.5l2.1-1.8c1.4-1.2,2.9-1.8,4.3-1.8h16c1.1,0,1.8,0.1,2.1,0.1c0.3,0.1,0.7,0.4,1.1,0.7
			c0.7,0.6,1.1,1.2,1.1,1.8h0.4V73.3c0-0.8-0.1-1.5-0.1-1.8c-0.1-0.3-0.4-0.6-0.9-1c-0.6-0.4-0.9-0.7-1.3-0.7
			c-0.3-0.1-1-0.1-2.1-0.1h-14.6c-1.1,0-1.8,0.1-2.2,0.2c-0.4,0.1-1.1,0.7-2.2,1.6l-5.4-4.5l2.1-1.8c1.1-0.8,1.8-1.4,2.2-1.6
			c0.4-0.1,1.1-0.2,2.2-0.2h21.2c1.4,0,2.9,0.6,4.3,1.8l2.1,1.8c1.4,1.2,2.1,2.7,2.1,4.5l0.1,28.7c0,1.8-0.7,3.3-2.1,4.5l-2.1,1.8
			c-1.4,1.2-2.9,1.8-4.3,1.8L370.6,108.3L370.6,108.3z M374.7,101.9c1.1,0,1.8-0.1,2.1-0.1c0.3-0.1,0.7-0.4,1.3-0.7
			c0.6-0.4,0.8-0.7,0.8-1c0.1-0.3,0.1-0.8,0.1-1.8v-7c0-1-0.1-1.6-0.2-1.7c-0.1-0.3-0.4-0.7-0.8-1.1c-0.6-0.4-0.9-0.7-1.3-0.7
			c-0.3-0.1-1-0.1-2.1-0.1h-13.1c-1.1,0-1.8,0.1-2.1,0.1c-0.3,0.1-0.7,0.4-1.3,0.7c-0.6,0.4-0.8,0.7-0.9,1c-0.1,0.3-0.1,0.8-0.1,1.8
			v6.9c0,0.8,0.1,1.5,0.1,1.8c0.1,0.3,0.4,0.6,0.9,1c0.6,0.5,0.9,0.7,1.3,0.8c0.3,0.1,1,0.1,2.1,0.1H374.7z"/>
		<path class="st4" d="M420.8,70.5c-0.6-0.4-0.9-0.7-1.3-0.7c-0.3-0.1-1-0.1-2.1-0.1h-13.6c-1.1,0-1.8,0.1-2.1,0.1
			c-0.3,0.1-0.7,0.4-1.3,0.7c-0.6,0.4-0.8,0.8-0.8,1.1l-0.2,36.6h-7.6V71.3c0-1.8,1.4-3.9,4.3-6.3c1.4-1.2,2.9-1.8,4.3-1.8h20.3
			c1.4,0,2.9,0.6,4.3,1.8c2.9,2.4,4.3,4.5,4.3,6.3v36.8h-7.6l-0.2-36.6C421.7,71.3,421.4,70.8,420.8,70.5z"/>
	</g>
</g>
</svg>
